<?xml version="1.0" encoding="utf-8"?>
<!-- Generator: Adobe Illustrator 22.1.0, SVG Export Plug-In . SVG Version: 6.00 Build 0)  -->
<svg version="1.1" id="Layer_1" xmlns="http://www.w3.org/2000/svg" xmlns:xlink="http://www.w3.org/1999/xlink" x="0px" y="0px"
	 viewBox="0 0 1224 792" style="enable-background:new 0 0 1224 792;" xml:space="preserve">
<g>
	<path d="M115.7,327.8c-0.7,1.7-1.1,3.3-1.1,4.8c-0.1,1.5,0.2,2.8,0.8,3.8c0.6,1.1,1.3,2,2.1,2.8c0.9,0.8,2,1.5,3.4,2
		c1.4,0.6,2.8,1.1,4.1,1.4c1.3,0.4,2.9,0.7,4.9,1c1.9,0.3,3.6,0.5,5,0.6c1.4,0.1,3.1,0.2,5,0.2c1,1,1.5,2.9,1.5,5.6
		s-0.5,4.6-1.5,5.6c-17.3,0-32.2,0-44.7,0c-3.5,0-13.9,0-31.2,0c-1-1-1.5-3-1.5-5.8c0-2.8,0.5-4.8,1.5-5.8c8.9,0,15.8-1.5,21-4.6
		c5.1-3.1,9.8-9.6,14-19.5l79.2-187.4c4.8,0,11.2-2.3,19.3-7l71.9,199.4c1,2.8,2.2,5.3,3.4,7.4c1.2,2.1,2.8,3.8,4.8,5.2l4.6,3.2
		c1.2,0.8,3.3,1.4,6.1,1.9c2.8,0.5,4.7,0.7,5.7,0.8c1,0.1,3.2,0.3,6.7,0.7c1,1,1.5,2.9,1.5,5.7s-0.5,4.7-1.5,5.7
		c-17.3,0-30.6,0-39.9,0c-13.2,0-28.4,0-45.7,0c-1-1-1.5-2.9-1.5-5.7c0-2.8,0.5-4.7,1.5-5.7c1.4-0.1,3.2-0.2,5.4-0.2
		s3.9-0.1,5.2-0.2l4.6-0.6c1.8,0,3.2-0.1,4.1-0.4c0.9-0.3,2-0.7,3.2-1.1c1.2-0.5,2.1-1,2.6-1.6c0.5-0.6,1-1.4,1.4-2.3
		c0.4-0.9,0.5-2,0.4-3.2c-0.1-1.2-0.5-2.7-1-4.3l-20.3-59.1h-73.6c-4.1,0-6.9,0.4-8.5,1.2c-1.6,0.8-2.8,2.4-3.7,4.8L115.7,327.8z
		 M153.5,256.6h61.7l-32.7-94.9h-2.2L144.7,252c-0.7,1.7-0.3,2.9,1,3.6S149.7,256.6,153.5,256.6z"/>
	<path d="M353.4,312.9c0,5,0.2,9.1,0.5,12.4c0.3,3.2,1,6.1,2,8.5c1,2.4,2.2,4.3,3.4,5.5c1.2,1.3,3.2,2.3,5.8,3.2
		c2.6,0.9,5.2,1.4,7.8,1.6c2.6,0.2,6.2,0.3,10.8,0.3c1,1,1.5,2.9,1.5,5.6s-0.5,4.6-1.5,5.6c-23.2,0-38.2,0-45,0
		c-7.5,0-22.6,0-45.3,0c-1-1-1.5-2.9-1.5-5.6s0.5-4.6,1.5-5.6c4.7,0,8.3-0.1,10.8-0.3c2.6-0.2,5.1-0.8,7.8-1.6
		c2.6-0.9,4.5-1.9,5.8-3.2c1.2-1.3,2.4-3.1,3.4-5.5c1-2.4,1.7-5.3,2-8.5c0.3-3.2,0.5-7.4,0.5-12.4V172.8c0-7.4-0.4-13.1-1.1-17.1
		c-0.7-4-2.4-7.1-5.1-9.3c-2.7-2.2-5.6-3.6-8.9-4.1c-3.2-0.5-8.3-0.8-15.3-0.8c-1-1-1.5-3-1.5-5.8c0-2.8,0.5-4.8,1.5-5.8
		c23.2,0,38.2,0,45,0c7.5,0,22.6,0,45.3,0c1,1,1.5,3,1.5,5.8c0,2.8-0.5,4.8-1.5,5.8c-6.9,0-12,0.3-15.3,0.8
		c-3.2,0.5-6.2,1.9-8.9,4.1c-2.7,2.2-4.4,5.3-5.1,9.3c-0.7,4-1.1,9.7-1.1,17.1V312.9z"/>
	<path d="M762.4,263.3c0,14.4-2.1,27.6-6.3,39.6c-4.2,12-10.2,22.2-18.2,30.7c-7.9,8.5-17.4,15.1-28.4,19.7c-11.1,4.7-23.4,7-37.2,7
		c-13.5,0-25.8-2.3-36.8-7c-11.1-4.7-20.5-11.2-28.4-19.7c-7.9-8.5-14.1-18.7-18.5-30.7c-4.4-12-6.6-25.2-6.6-39.6
		c0-14.4,2.3-27.6,6.8-39.4c4.5-11.9,10.8-22,18.8-30.4c8-8.4,17.6-14.9,28.6-19.5c11-4.7,23.1-7,36.1-7c13.3,0,25.4,2.3,36.5,7
		c11,4.7,20.5,11.2,28.4,19.5c7.9,8.4,14.1,18.5,18.5,30.4C760.2,235.7,762.4,248.9,762.4,263.3z M709.4,263.3
		c0-16.1-3.2-28.7-9.6-37.9c-6.4-9.2-15.5-13.8-27.4-13.8c-11.9,0-21.1,4.6-27.6,13.8c-6.5,9.2-9.8,21.8-9.8,37.9
		c0,16.1,3.3,28.8,9.8,38.2c6.5,9.4,15.7,14.1,27.6,14.1c11.9,0,21-4.7,27.4-14.1C706.2,292.1,709.4,279.3,709.4,263.3z"/>
	<path d="M776.4,263.6c0-13.3,2.1-25.8,6.5-37.5c4.3-11.7,10.5-22,18.7-30.7c8.1-8.7,18-15.6,29.7-20.8c11.6-5.1,24.9-7.7,39.8-7.7
		c9.8,0,18.7,0.9,26.9,2.6c8.1,1.7,16.1,4.2,23.7,7.5l-10.8,41.5c-4.9-1.9-10.2-3.5-16.1-4.9c-5.8-1.4-12.3-2.1-19.5-2.1
		c-15.4,0-26.8,4.8-34.4,14.3c-7.6,9.5-11.3,22.1-11.3,37.7c0,16.5,3.5,29.3,10.6,38.4c7.1,9.1,19.5,13.6,37.2,13.6
		c6.3,0,13-0.6,20.2-1.7c7.2-1.2,13.8-3,19.9-5.6l7.3,42.6c-6.1,2.6-13.6,4.8-22.7,6.6c-9.1,1.9-19.1,2.8-30,2.8
		c-16.8,0-31.2-2.5-43.3-7.5c-12.1-5-22-11.8-29.8-20.4c-7.8-8.6-13.5-18.8-17.1-30.5C778.2,290.1,776.4,277.4,776.4,263.6z"/>
</g>
<g>
	<path d="M288.1,374.7c15.4,0,28.2,1.7,38.4,5.2c10.2,3.5,18.4,8.5,24.6,15c6.2,6.5,10.5,14.4,13.1,23.7c2.6,9.3,3.8,19.7,3.8,31.1
		v108.2c-7.4,1.6-17.8,3.6-31.1,5.8c-13.3,2.2-29.3,3.3-48.2,3.3c-11.9,0-22.6-1-32.3-3.1c-9.7-2.1-18-5.5-25-10.3
		c-7-4.8-12.3-11-16.1-18.7c-3.7-7.7-5.6-17.1-5.6-28.3c0-10.7,2.1-19.8,6.5-27.2c4.3-7.4,10.1-13.4,17.3-17.8
		c7.2-4.4,15.5-7.6,24.8-9.6c9.3-2,19-3,29-3c6.7,0,12.7,0.3,18,0.9c5.2,0.6,9.5,1.3,12.7,2.3v-4.9c0-8.8-2.7-15.9-8-21.3
		c-5.4-5.4-14.7-8-27.9-8c-8.8,0-17.6,0.6-26.2,1.9c-8.6,1.3-16.1,3.1-22.3,5.4l-6.6-41.9c3-0.9,6.8-1.9,11.3-3
		c4.5-1,9.5-2,14.8-2.8c5.4-0.8,11-1.5,16.9-2.1C276,375,282,374.7,288.1,374.7z M292.3,526.9c5.1,0,10-0.1,14.7-0.3
		c4.7-0.2,8.4-0.6,11.2-1V486c-2.1-0.5-5.2-0.9-9.4-1.4c-4.2-0.5-8-0.7-11.5-0.7c-4.9,0-9.5,0.3-13.8,0.9c-4.3,0.6-8.1,1.7-11.3,3.3
		c-3.3,1.6-5.8,3.8-7.7,6.6c-1.9,2.8-2.8,6.3-2.8,10.5c0,8.1,2.7,13.8,8.2,16.9C275.2,525.3,282.7,526.9,292.3,526.9z"/>
	<path d="M561.6,223.8c-4.3-11.9-10.5-21.9-18.7-30.2c-8.1-8.3-18.1-14.7-30-19.2c-11.9-4.5-25.4-6.8-40.5-6.8
		c-6.3,0-12.9,0.3-19.7,0.9c-6.9,0.6-13.6,1.3-20.2,2.3c-6.6,0.9-13,2-19,3.3c-6.1,1.3-11.4,2.6-16.1,4V420h0.3v82.8
		c0,9.8,1,18.6,3,26.4c2,7.8,5.7,14.4,11.2,19.9c5.5,5.5,12.9,9.7,22.3,12.7c9.4,3,21.7,4.7,36.8,4.9l7.3-42.9
		c-6.3-0.5-11.3-1.5-15-3.1c-3.7-1.6-6.6-3.7-8.6-6.3c-2-2.6-3.3-5.7-4-9.4c-0.7-3.7-1-7.9-1-12.6V351c5.7,2.5,11.7,4.4,17.8,5.8
		c6.3,1.4,13,2.1,20.2,2.1c13,0,24.5-2.3,34.6-7c10-4.7,18.4-11.2,25.1-19.5c6.7-8.4,11.9-18.4,15.4-30c3.5-11.6,5.2-24.5,5.2-38.7
		C568,249,565.9,235.7,561.6,223.8z M478,314.9c-5.4,0-10.6-0.7-15.9-2.1c-5.1-1.4-9.2-3-12.4-5.1v-15.5l-0.3,0v-78.6
		c2.6-0.5,5.8-0.9,9.8-1.2c4-0.3,8.3-0.5,12.9-0.5c14.2,0,24.9,4.8,32.1,14.5c7.2,9.7,10.8,22.5,10.8,38.6
		C515,298.3,502.6,314.9,478,314.9z"/>
	<path d="M650,379.6c-10.5,35.4-21.5,68.5-32.9,99.5c-11.4,30.9-23.9,61-37.4,90c-4.9,10.5-9.8,19.4-14.7,26.7
		c-4.9,7.3-10.3,13.4-16.1,18.1c-5.8,4.8-12.4,8.3-19.7,10.5c-7.3,2.2-15.9,3.3-25.7,3.3c-8.2,0-15.7-0.8-22.6-2.3
		c-6.9-1.5-12.5-3.2-16.9-5.1l9.1-41.5c5.4,1.9,10.1,3.1,14.3,3.8c4.2,0.7,8.6,1,13.3,1c9.3,0,16.5-2.5,21.5-7.5
		c5-5,9.3-11.9,12.7-20.8c-11.9-23.3-23.7-49.4-35.6-78.4c-11.9-29-23-61.5-33.5-97.6h55.1c2.3,9.1,5.1,18.9,8.2,29.5
		c3.2,10.6,6.5,21.3,10,32.1c3.5,10.8,7.1,21.3,10.7,31.6c3.6,10.2,7.1,19.5,10.3,27.9c3-8.4,6.2-17.7,9.5-27.9
		c3.3-10.2,6.5-20.8,9.6-31.6c3.2-10.8,6.2-21.5,9.1-32.1c2.9-10.6,5.5-20.4,7.9-29.5H650z"/>
	<path d="M830.8,471.4c0,14.2-1.7,27.1-5.2,38.7c-3.5,11.6-8.6,21.6-15.4,30c-6.8,8.4-15.1,14.9-25.1,19.5c-10,4.7-21.5,7-34.6,7
		c-7.2,0-14-0.7-20.2-2.1c-6.3-1.4-12.3-3.4-18.1-5.9v69.1h-52V385.9c4.7-1.4,10-2.7,16.1-4c6-1.3,12.4-2.4,19-3.3
		c6.6-0.9,13.4-1.7,20.2-2.3c6.9-0.6,13.4-0.9,19.7-0.9c15.1,0,28.6,2.3,40.5,6.8c11.9,4.5,21.9,10.9,30,19.2
		c8.1,8.3,14.4,18.3,18.7,30.2C828.6,443.4,830.8,456.7,830.8,471.4z M777.7,472.8c0-16.1-3.6-28.9-10.8-38.6
		c-7.2-9.7-17.9-14.5-32.1-14.5c-4.7,0-9,0.2-12.9,0.5c-4,0.3-7.2,0.8-9.8,1.2v93.9c3.3,2.1,7.5,3.8,12.7,5.2
		c5.2,1.4,10.5,2.1,15.9,2.1C765.4,522.7,777.7,506,777.7,472.8z"/>
	<path d="M906.2,525.8c9.5,0,16.3-0.9,20.2-2.8c4-1.9,5.9-5.5,5.9-10.8c0-4.2-2.6-7.9-7.7-11c-5.1-3.1-12.9-6.7-23.4-10.6
		c-8.1-3-15.5-6.2-22.2-9.4c-6.6-3.3-12.3-7.2-16.9-11.7c-4.7-4.5-8.3-9.9-10.8-16.2c-2.6-6.3-3.8-13.8-3.8-22.7
		c0-17.2,6.4-30.8,19.2-40.8c12.8-10,30.4-15,52.7-15c11.2,0,21.9,1,32.1,3c10.2,2,18.4,4.1,24.4,6.5l-9.1,40.5
		c-6.1-2.1-12.6-4-19.7-5.6c-7.1-1.6-15.1-2.4-23.9-2.4c-16.3,0-24.4,4.5-24.4,13.6c0,2.1,0.3,4,1,5.6c0.7,1.6,2.1,3.2,4.2,4.7
		c2.1,1.5,4.9,3.2,8.6,4.9c3.6,1.8,8.2,3.7,13.8,5.8c11.4,4.2,20.8,8.4,28.3,12.5c7.4,4.1,13.3,8.5,17.6,13.3
		c4.3,4.8,7.3,10,9.1,15.8c1.7,5.8,2.6,12.5,2.6,20.2c0,18.1-6.8,31.8-20.4,41.1c-13.6,9.3-32.9,13.9-57.8,13.9
		c-16.3,0-29.8-1.4-40.7-4.2c-10.8-2.8-18.3-5.1-22.5-7l8.7-42.2c8.8,3.5,17.9,6.2,27.2,8.2C887.9,524.8,897.1,525.8,906.2,525.8z"
		/>
	<path d="M996.6,472.8c0-16.3,2.5-30.5,7.5-42.8c5-12.2,11.6-22.4,19.7-30.5c8.1-8.1,17.5-14.3,28.1-18.5
		c10.6-4.2,21.5-6.3,32.6-6.3c26.1,0,46.7,8,61.8,23.9c15.1,15.9,22.7,39.4,22.7,70.3c0,3-0.1,6.3-0.3,9.9c-0.2,3.6-0.5,6.8-0.7,9.6
		h-118c1.2,10.7,6.2,19.2,15,25.5c8.8,6.3,20.7,9.4,35.6,9.4c9.5,0,18.9-0.9,28.1-2.6c9.2-1.7,16.7-3.9,22.5-6.5l7,42.2
		c-2.8,1.4-6.5,2.8-11.2,4.2c-4.7,1.4-9.8,2.6-15.5,3.7c-5.7,1-11.8,1.9-18.3,2.6c-6.5,0.7-13,1-19.5,1c-16.5,0-30.9-2.4-43.1-7.3
		s-22.3-11.6-30.4-20.1c-8-8.5-14-18.6-17.8-30.2C998.5,498.8,996.6,486.3,996.6,472.8z M1118.7,452.9c-0.2-4.4-1-8.7-2.3-12.9
		c-1.3-4.2-3.3-7.9-5.9-11.2c-2.7-3.3-6.1-5.9-10.1-8c-4.1-2.1-9.1-3.1-15.2-3.1c-5.8,0-10.8,1-15,3c-4.2,2-7.7,4.6-10.5,7.9
		c-2.8,3.3-4.9,7-6.5,11.3c-1.5,4.3-2.6,8.7-3.3,13.1H1118.7z"/>
</g>
</svg>
